<?xml version="1.0" encoding="UTF-8"?>
<svg xmlns="http://www.w3.org/2000/svg" width="256" height="255.98" viewBox="0 0 256 255.98">
  <defs>
    <linearGradient id="python-gradient" x1="12.41" y1="12.46" x2="182.11" y2="182.21" gradientUnits="userSpaceOnUse">
      <stop offset="0" stop-color="#3776ab"/>
      <stop offset="0.5" stop-color="#3776ab"/>
      <stop offset="0.5" stop-color="#ffd43b"/>
      <stop offset="1" stop-color="#ffd43b"/>
    </linearGradient>
  </defs>
  <path fill="url(#python-gradient)" d="M126.92 0c-8.31.04-16.25.75-23.31 2.02-20.66 3.67-24.41 11.35-24.41 25.54v18.73h48.82v6.24H62.14c-14.24 0-26.72 8.54-30.62 24.77-4.5 18.67-4.7 30.34 0 49.86 3.48 14.5 11.82 24.77 26.06 24.77h16.87v-22.43c0-16.21 14.02-30.55 30.62-30.55h48.74c13.61 0 24.41-11.31 24.41-24.99V27.56c0-13.33-11.2-23.37-24.41-25.54-8.39-1.4-17.11-2.06-25.89-2.02zm-26.39 14.58c5.06 0 9.17 4.15 9.17 9.27 0 5.1-4.11 9.23-9.17 9.23-5.05 0-9.17-4.13-9.17-9.23 0-5.12 4.12-9.27 9.17-9.27zM196.59 52.53v21.91c0 16.9-14.33 30.99-30.62 30.99h-48.74c-13.36 0-24.41 11.45-24.41 24.99v46.21c0 13.33 11.47 21.18 24.41 24.99 15.46 4.55 30.29 5.37 48.74 0 12.29-3.56 24.41-10.73 24.41-24.99v-18.74h-48.74v-6.24h73.23c14.24 0 19.54-9.94 24.41-24.77 5.11-15.33 4.89-30.06 0-49.86-3.52-14.18-10.17-24.77-24.41-24.77h-18.28zm-28.32 131.32c5.06 0 9.17 4.13 9.17 9.23 0 5.12-4.11 9.27-9.17 9.27-5.05 0-9.17-4.15-9.17-9.27 0-5.1 4.13-9.23 9.17-9.23z"/>
</svg>
